<?xml version="1.0" encoding="UTF-8" standalone="no"?>
<!DOCTYPE svg PUBLIC "-//W3C//DTD SVG 1.1//EN"
 "http://www.w3.org/Graphics/SVG/1.1/DTD/svg11.dtd">
<!-- Generated by graphviz version 14.0.2 (20251019.1705)
 -->
<!-- Pages: 1 -->
<svg width="2584pt" height="375pt"
 viewBox="0.00 0.00 2584.00 375.00" xmlns="http://www.w3.org/2000/svg" xmlns:xlink="http://www.w3.org/1999/xlink">
<g id="graph0" class="graph" transform="scale(1 1) rotate(0) translate(4 371)">
<polygon fill="white" stroke="none" points="-4,4 -4,-371 2579.63,-371 2579.63,4 -4,4"/>
<!-- 1419065950288 -->
<g id="node1" class="node">
<title>1419065950288</title>
<polygon fill="none" stroke="black" points="956.25,-85.5 956.25,-121.5 1149,-121.5 1149,-85.5 956.25,-85.5"/>
<text xml:space="preserve" text-anchor="middle" x="966.12" y="-98.7" font-family="Times New Roman,serif" font-size="14.00"> </text>
<polyline fill="none" stroke="black" points="976,-86 976,-121.5"/>
<text xml:space="preserve" text-anchor="middle" x="1020" y="-98.7" font-family="Times New Roman,serif" font-size="14.00">data: &#45;1.2806</text>
<polyline fill="none" stroke="black" points="1064,-86 1064,-121.5"/>
<text xml:space="preserve" text-anchor="middle" x="1106.5" y="-98.7" font-family="Times New Roman,serif" font-size="14.00">grad: 0.0000</text>
</g>
<!-- 1419065950336ReLU -->
<g id="node4" class="node">
<title>1419065950336ReLU</title>
<ellipse fill="none" stroke="black" cx="1218.44" cy="-103.5" rx="33.44" ry="18"/>
<text xml:space="preserve" text-anchor="middle" x="1218.44" y="-98.45" font-family="Times New Roman,serif" font-size="14.00">ReLU</text>
</g>
<!-- 1419065950288&#45;&gt;1419065950336ReLU -->
<g id="edge37" class="edge">
<title>1419065950288&#45;&gt;1419065950336ReLU</title>
<path fill="none" stroke="black" d="M1149.39,-103.5C1157.66,-103.5 1165.74,-103.5 1173.27,-103.5"/>
<polygon fill="black" stroke="black" points="1173.09,-107 1183.09,-103.5 1173.09,-100 1173.09,-107"/>
</g>
<!-- 1419065950288+ -->
<g id="node2" class="node">
<title>1419065950288+</title>
<ellipse fill="none" stroke="black" cx="893.25" cy="-103.5" rx="27" ry="18"/>
<text xml:space="preserve" text-anchor="middle" x="893.25" y="-98.45" font-family="Times New Roman,serif" font-size="14.00">+</text>
</g>
<!-- 1419065950288+&#45;&gt;1419065950288 -->
<g id="edge1" class="edge">
<title>1419065950288+&#45;&gt;1419065950288</title>
<path fill="none" stroke="black" d="M920.59,-103.5C927.73,-103.5 935.92,-103.5 944.64,-103.5"/>
<polygon fill="black" stroke="black" points="944.42,-107 954.42,-103.5 944.42,-100 944.42,-107"/>
</g>
<!-- 1419065950336 -->
<g id="node3" class="node">
<title>1419065950336</title>
<polygon fill="none" stroke="black" points="1290.13,-85.5 1290.13,-121.5 1478.38,-121.5 1478.38,-85.5 1290.13,-85.5"/>
<text xml:space="preserve" text-anchor="middle" x="1300" y="-98.7" font-family="Times New Roman,serif" font-size="14.00"> </text>
<polyline fill="none" stroke="black" points="1309.88,-86 1309.88,-121.5"/>
<text xml:space="preserve" text-anchor="middle" x="1351.63" y="-98.7" font-family="Times New Roman,serif" font-size="14.00">data: 0.0000</text>
<polyline fill="none" stroke="black" points="1393.38,-86 1393.38,-121.5"/>
<text xml:space="preserve" text-anchor="middle" x="1435.88" y="-98.7" font-family="Times New Roman,serif" font-size="14.00">grad: 0.0000</text>
</g>
<!-- 1419065951536* -->
<g id="node24" class="node">
<title>1419065951536*</title>
<ellipse fill="none" stroke="black" cx="1543.63" cy="-96.5" rx="27" ry="18"/>
<text xml:space="preserve" text-anchor="middle" x="1543.63" y="-91.45" font-family="Times New Roman,serif" font-size="14.00">*</text>
</g>
<!-- 1419065950336&#45;&gt;1419065951536* -->
<g id="edge34" class="edge">
<title>1419065950336&#45;&gt;1419065951536*</title>
<path fill="none" stroke="black" d="M1478.62,-99.35C1487.87,-98.94 1496.83,-98.54 1504.99,-98.17"/>
<polygon fill="black" stroke="black" points="1504.94,-101.68 1514.77,-97.74 1504.63,-94.69 1504.94,-101.68"/>
</g>
<!-- 1419065950336ReLU&#45;&gt;1419065950336 -->
<g id="edge2" class="edge">
<title>1419065950336ReLU&#45;&gt;1419065950336</title>
<path fill="none" stroke="black" d="M1252.19,-103.5C1260.18,-103.5 1269.16,-103.5 1278.57,-103.5"/>
<polygon fill="black" stroke="black" points="1278.27,-107 1288.27,-103.5 1278.27,-100 1278.27,-107"/>
</g>
<!-- 1419065899392 -->
<g id="node5" class="node">
<title>1419065899392</title>
<polygon fill="none" stroke="black" points="0,-261.5 0,-297.5 192.75,-297.5 192.75,-261.5 0,-261.5"/>
<text xml:space="preserve" text-anchor="middle" x="9.88" y="-274.7" font-family="Times New Roman,serif" font-size="14.00"> </text>
<polyline fill="none" stroke="black" points="19.75,-262 19.75,-297.5"/>
<text xml:space="preserve" text-anchor="middle" x="63.75" y="-274.7" font-family="Times New Roman,serif" font-size="14.00">data: &#45;0.0985</text>
<polyline fill="none" stroke="black" points="107.75,-262 107.75,-297.5"/>
<text xml:space="preserve" text-anchor="middle" x="150.25" y="-274.7" font-family="Times New Roman,serif" font-size="14.00">grad: 0.0000</text>
</g>
<!-- 1419065950624* -->
<g id="node7" class="node">
<title>1419065950624*</title>
<ellipse fill="none" stroke="black" cx="255.75" cy="-279.5" rx="27" ry="18"/>
<text xml:space="preserve" text-anchor="middle" x="255.75" y="-274.45" font-family="Times New Roman,serif" font-size="14.00">*</text>
</g>
<!-- 1419065899392&#45;&gt;1419065950624* -->
<g id="edge21" class="edge">
<title>1419065899392&#45;&gt;1419065950624*</title>
<path fill="none" stroke="black" d="M193,-279.5C201.43,-279.5 209.59,-279.5 217.07,-279.5"/>
<polygon fill="black" stroke="black" points="217.04,-283 227.04,-279.5 217.04,-276 217.04,-283"/>
</g>
<!-- 1419065950624 -->
<g id="node6" class="node">
<title>1419065950624</title>
<polygon fill="none" stroke="black" points="318.75,-275.5 318.75,-311.5 511.5,-311.5 511.5,-275.5 318.75,-275.5"/>
<text xml:space="preserve" text-anchor="middle" x="328.62" y="-288.7" font-family="Times New Roman,serif" font-size="14.00"> </text>
<polyline fill="none" stroke="black" points="338.5,-276 338.5,-311.5"/>
<text xml:space="preserve" text-anchor="middle" x="382.5" y="-288.7" font-family="Times New Roman,serif" font-size="14.00">data: &#45;0.0985</text>
<polyline fill="none" stroke="black" points="426.5,-276 426.5,-311.5"/>
<text xml:space="preserve" text-anchor="middle" x="469" y="-288.7" font-family="Times New Roman,serif" font-size="14.00">grad: 0.0000</text>
</g>
<!-- 1419065950816+ -->
<g id="node10" class="node">
<title>1419065950816+</title>
<ellipse fill="none" stroke="black" cx="574.5" cy="-293.5" rx="27" ry="18"/>
<text xml:space="preserve" text-anchor="middle" x="574.5" y="-288.45" font-family="Times New Roman,serif" font-size="14.00">+</text>
</g>
<!-- 1419065950624&#45;&gt;1419065950816+ -->
<g id="edge27" class="edge">
<title>1419065950624&#45;&gt;1419065950816+</title>
<path fill="none" stroke="black" d="M511.75,-293.5C520.18,-293.5 528.34,-293.5 535.82,-293.5"/>
<polygon fill="black" stroke="black" points="535.79,-297 545.79,-293.5 535.79,-290 535.79,-297"/>
</g>
<!-- 1419065950624*&#45;&gt;1419065950624 -->
<g id="edge3" class="edge">
<title>1419065950624*&#45;&gt;1419065950624</title>
<path fill="none" stroke="black" d="M282.74,-281.81C289.92,-282.45 298.19,-283.19 307,-283.97"/>
<polygon fill="black" stroke="black" points="306.64,-287.45 316.92,-284.85 307.26,-280.48 306.64,-287.45"/>
</g>
<!-- 1419035240896 -->
<g id="node8" class="node">
<title>1419035240896</title>
<polygon fill="none" stroke="black" points="2.25,-179.5 2.25,-215.5 190.5,-215.5 190.5,-179.5 2.25,-179.5"/>
<text xml:space="preserve" text-anchor="middle" x="12.12" y="-192.7" font-family="Times New Roman,serif" font-size="14.00"> </text>
<polyline fill="none" stroke="black" points="22,-180 22,-215.5"/>
<text xml:space="preserve" text-anchor="middle" x="63.75" y="-192.7" font-family="Times New Roman,serif" font-size="14.00">data: 1.0000</text>
<polyline fill="none" stroke="black" points="105.5,-180 105.5,-215.5"/>
<text xml:space="preserve" text-anchor="middle" x="148" y="-192.7" font-family="Times New Roman,serif" font-size="14.00">grad: 0.0000</text>
</g>
<!-- 1419035240896&#45;&gt;1419065950624* -->
<g id="edge25" class="edge">
<title>1419035240896&#45;&gt;1419065950624*</title>
<path fill="none" stroke="black" d="M132.69,-215.9C160.09,-230.18 197.69,-249.77 223.9,-263.42"/>
<polygon fill="black" stroke="black" points="222.19,-266.48 232.68,-268 225.43,-260.27 222.19,-266.48"/>
</g>
<!-- 1419065900496* -->
<g id="node26" class="node">
<title>1419065900496*</title>
<ellipse fill="none" stroke="black" cx="255.75" cy="-87.5" rx="27" ry="18"/>
<text xml:space="preserve" text-anchor="middle" x="255.75" y="-82.45" font-family="Times New Roman,serif" font-size="14.00">*</text>
</g>
<!-- 1419035240896&#45;&gt;1419065900496* -->
<g id="edge23" class="edge">
<title>1419035240896&#45;&gt;1419065900496*</title>
<path fill="none" stroke="black" d="M123.72,-179.09C152.33,-159.09 197.85,-127.27 227.01,-106.89"/>
<polygon fill="black" stroke="black" points="228.79,-109.92 234.98,-101.32 224.78,-104.18 228.79,-109.92"/>
</g>
<!-- 1419065950816 -->
<g id="node9" class="node">
<title>1419065950816</title>
<polygon fill="none" stroke="black" points="639.75,-275.5 639.75,-311.5 828,-311.5 828,-275.5 639.75,-275.5"/>
<text xml:space="preserve" text-anchor="middle" x="649.62" y="-288.7" font-family="Times New Roman,serif" font-size="14.00"> </text>
<polyline fill="none" stroke="black" points="659.5,-276 659.5,-311.5"/>
<text xml:space="preserve" text-anchor="middle" x="701.25" y="-288.7" font-family="Times New Roman,serif" font-size="14.00">data: 0.1242</text>
<polyline fill="none" stroke="black" points="743,-276 743,-311.5"/>
<text xml:space="preserve" text-anchor="middle" x="785.5" y="-288.7" font-family="Times New Roman,serif" font-size="14.00">grad: 0.0000</text>
</g>
<!-- 1419065951200+ -->
<g id="node17" class="node">
<title>1419065951200+</title>
<ellipse fill="none" stroke="black" cx="893.25" cy="-244.5" rx="27" ry="18"/>
<text xml:space="preserve" text-anchor="middle" x="893.25" y="-239.45" font-family="Times New Roman,serif" font-size="14.00">+</text>
</g>
<!-- 1419065950816&#45;&gt;1419065951200+ -->
<g id="edge16" class="edge">
<title>1419065950816&#45;&gt;1419065951200+</title>
<path fill="none" stroke="black" d="M802.26,-275.02C811.69,-272.26 821.23,-269.37 830.25,-266.5 839.46,-263.57 849.35,-260.17 858.47,-256.94"/>
<polygon fill="black" stroke="black" points="859.46,-260.3 867.69,-253.62 857.09,-253.71 859.46,-260.3"/>
</g>
<!-- 1419065950816+&#45;&gt;1419065950816 -->
<g id="edge4" class="edge">
<title>1419065950816+&#45;&gt;1419065950816</title>
<path fill="none" stroke="black" d="M601.84,-293.5C609.58,-293.5 618.55,-293.5 628.1,-293.5"/>
<polygon fill="black" stroke="black" points="628.02,-297 638.02,-293.5 628.02,-290 628.02,-297"/>
</g>
<!-- 1419065951008 -->
<g id="node11" class="node">
<title>1419065951008</title>
<polygon fill="none" stroke="black" points="637.5,-220.5 637.5,-256.5 830.25,-256.5 830.25,-220.5 637.5,-220.5"/>
<text xml:space="preserve" text-anchor="middle" x="647.38" y="-233.7" font-family="Times New Roman,serif" font-size="14.00"> </text>
<polyline fill="none" stroke="black" points="657.25,-221 657.25,-256.5"/>
<text xml:space="preserve" text-anchor="middle" x="701.25" y="-233.7" font-family="Times New Roman,serif" font-size="14.00">data: &#45;0.4144</text>
<polyline fill="none" stroke="black" points="745.25,-221 745.25,-256.5"/>
<text xml:space="preserve" text-anchor="middle" x="787.75" y="-233.7" font-family="Times New Roman,serif" font-size="14.00">grad: 0.0000</text>
</g>
<!-- 1419065951008&#45;&gt;1419065951200+ -->
<g id="edge29" class="edge">
<title>1419065951008&#45;&gt;1419065951200+</title>
<path fill="none" stroke="black" d="M830.5,-242.15C838.93,-242.47 847.09,-242.78 854.57,-243.06"/>
<polygon fill="black" stroke="black" points="854.41,-246.56 864.54,-243.44 854.68,-239.56 854.41,-246.56"/>
</g>
<!-- 1419065951008* -->
<g id="node12" class="node">
<title>1419065951008*</title>
<ellipse fill="none" stroke="black" cx="574.5" cy="-238.5" rx="27" ry="18"/>
<text xml:space="preserve" text-anchor="middle" x="574.5" y="-233.45" font-family="Times New Roman,serif" font-size="14.00">*</text>
</g>
<!-- 1419065951008*&#45;&gt;1419065951008 -->
<g id="edge5" class="edge">
<title>1419065951008*&#45;&gt;1419065951008</title>
<path fill="none" stroke="black" d="M601.84,-238.5C608.98,-238.5 617.17,-238.5 625.89,-238.5"/>
<polygon fill="black" stroke="black" points="625.67,-242 635.67,-238.5 625.67,-235 625.67,-242"/>
</g>
<!-- 1419065899824 -->
<g id="node13" class="node">
<title>1419065899824</title>
<polygon fill="none" stroke="black" points="321,-220.5 321,-256.5 509.25,-256.5 509.25,-220.5 321,-220.5"/>
<text xml:space="preserve" text-anchor="middle" x="330.88" y="-233.7" font-family="Times New Roman,serif" font-size="14.00"> </text>
<polyline fill="none" stroke="black" points="340.75,-221 340.75,-256.5"/>
<text xml:space="preserve" text-anchor="middle" x="382.5" y="-233.7" font-family="Times New Roman,serif" font-size="14.00">data: 0.8289</text>
<polyline fill="none" stroke="black" points="424.25,-221 424.25,-256.5"/>
<text xml:space="preserve" text-anchor="middle" x="466.75" y="-233.7" font-family="Times New Roman,serif" font-size="14.00">grad: 0.0000</text>
</g>
<!-- 1419065899824&#45;&gt;1419065951008* -->
<g id="edge40" class="edge">
<title>1419065899824&#45;&gt;1419065951008*</title>
<path fill="none" stroke="black" d="M509.49,-238.5C518.74,-238.5 527.71,-238.5 535.86,-238.5"/>
<polygon fill="black" stroke="black" points="535.65,-242 545.65,-238.5 535.65,-235 535.65,-242"/>
</g>
<!-- 1419065899872 -->
<g id="node14" class="node">
<title>1419065899872</title>
<polygon fill="none" stroke="black" points="318.75,-165.5 318.75,-201.5 511.5,-201.5 511.5,-165.5 318.75,-165.5"/>
<text xml:space="preserve" text-anchor="middle" x="328.62" y="-178.7" font-family="Times New Roman,serif" font-size="14.00"> </text>
<polyline fill="none" stroke="black" points="338.5,-166 338.5,-201.5"/>
<text xml:space="preserve" text-anchor="middle" x="382.5" y="-178.7" font-family="Times New Roman,serif" font-size="14.00">data: &#45;0.5000</text>
<polyline fill="none" stroke="black" points="426.5,-166 426.5,-201.5"/>
<text xml:space="preserve" text-anchor="middle" x="469" y="-178.7" font-family="Times New Roman,serif" font-size="14.00">grad: 0.0000</text>
</g>
<!-- 1419065899872&#45;&gt;1419065951008* -->
<g id="edge35" class="edge">
<title>1419065899872&#45;&gt;1419065951008*</title>
<path fill="none" stroke="black" d="M482.92,-201.95C492.57,-204.95 502.33,-208.17 511.5,-211.5 521.36,-215.08 531.89,-219.45 541.43,-223.62"/>
<polygon fill="black" stroke="black" points="539.74,-226.7 550.29,-227.58 542.59,-220.31 539.74,-226.7"/>
</g>
<!-- 1419065900880* -->
<g id="node37" class="node">
<title>1419065900880*</title>
<ellipse fill="none" stroke="black" cx="574.5" cy="-128.5" rx="27" ry="18"/>
<text xml:space="preserve" text-anchor="middle" x="574.5" y="-123.45" font-family="Times New Roman,serif" font-size="14.00">*</text>
</g>
<!-- 1419065899872&#45;&gt;1419065900880* -->
<g id="edge33" class="edge">
<title>1419065899872&#45;&gt;1419065900880*</title>
<path fill="none" stroke="black" d="M485.79,-165.08C494.51,-162.39 503.26,-159.51 511.5,-156.5 521.5,-152.85 532.13,-148.3 541.73,-143.94"/>
<polygon fill="black" stroke="black" points="543.06,-147.18 550.65,-139.79 540.1,-140.83 543.06,-147.18"/>
</g>
<!-- 1419065899920 -->
<g id="node15" class="node">
<title>1419065899920</title>
<polygon fill="none" stroke="black" points="321,-330.5 321,-366.5 509.25,-366.5 509.25,-330.5 321,-330.5"/>
<text xml:space="preserve" text-anchor="middle" x="330.88" y="-343.7" font-family="Times New Roman,serif" font-size="14.00"> </text>
<polyline fill="none" stroke="black" points="340.75,-331 340.75,-366.5"/>
<text xml:space="preserve" text-anchor="middle" x="382.5" y="-343.7" font-family="Times New Roman,serif" font-size="14.00">data: 0.2227</text>
<polyline fill="none" stroke="black" points="424.25,-331 424.25,-366.5"/>
<text xml:space="preserve" text-anchor="middle" x="466.75" y="-343.7" font-family="Times New Roman,serif" font-size="14.00">grad: 0.0000</text>
</g>
<!-- 1419065899920&#45;&gt;1419065950816+ -->
<g id="edge24" class="edge">
<title>1419065899920&#45;&gt;1419065950816+</title>
<path fill="none" stroke="black" d="M485.79,-330.08C494.51,-327.39 503.26,-324.51 511.5,-321.5 521.5,-317.85 532.13,-313.3 541.73,-308.94"/>
<polygon fill="black" stroke="black" points="543.06,-312.18 550.65,-304.79 540.1,-305.83 543.06,-312.18"/>
</g>
<!-- 1419065951200 -->
<g id="node16" class="node">
<title>1419065951200</title>
<polygon fill="none" stroke="black" points="956.25,-226.5 956.25,-262.5 1149,-262.5 1149,-226.5 956.25,-226.5"/>
<text xml:space="preserve" text-anchor="middle" x="966.12" y="-239.7" font-family="Times New Roman,serif" font-size="14.00"> </text>
<polyline fill="none" stroke="black" points="976,-227 976,-262.5"/>
<text xml:space="preserve" text-anchor="middle" x="1020" y="-239.7" font-family="Times New Roman,serif" font-size="14.00">data: &#45;0.2902</text>
<polyline fill="none" stroke="black" points="1064,-227 1064,-262.5"/>
<text xml:space="preserve" text-anchor="middle" x="1106.5" y="-239.7" font-family="Times New Roman,serif" font-size="14.00">grad: 0.0000</text>
</g>
<!-- 1419065951248ReLU -->
<g id="node20" class="node">
<title>1419065951248ReLU</title>
<ellipse fill="none" stroke="black" cx="1218.44" cy="-244.5" rx="33.44" ry="18"/>
<text xml:space="preserve" text-anchor="middle" x="1218.44" y="-239.45" font-family="Times New Roman,serif" font-size="14.00">ReLU</text>
</g>
<!-- 1419065951200&#45;&gt;1419065951248ReLU -->
<g id="edge17" class="edge">
<title>1419065951200&#45;&gt;1419065951248ReLU</title>
<path fill="none" stroke="black" d="M1149.39,-244.5C1157.66,-244.5 1165.74,-244.5 1173.27,-244.5"/>
<polygon fill="black" stroke="black" points="1173.09,-248 1183.09,-244.5 1173.09,-241 1173.09,-248"/>
</g>
<!-- 1419065951200+&#45;&gt;1419065951200 -->
<g id="edge6" class="edge">
<title>1419065951200+&#45;&gt;1419065951200</title>
<path fill="none" stroke="black" d="M920.59,-244.5C927.73,-244.5 935.92,-244.5 944.64,-244.5"/>
<polygon fill="black" stroke="black" points="944.42,-248 954.42,-244.5 944.42,-241 944.42,-248"/>
</g>
<!-- 1419065900016 -->
<g id="node18" class="node">
<title>1419065900016</title>
<polygon fill="none" stroke="black" points="1287.88,-30.5 1287.88,-66.5 1480.63,-66.5 1480.63,-30.5 1287.88,-30.5"/>
<text xml:space="preserve" text-anchor="middle" x="1297.75" y="-43.7" font-family="Times New Roman,serif" font-size="14.00"> </text>
<polyline fill="none" stroke="black" points="1307.63,-31 1307.63,-66.5"/>
<text xml:space="preserve" text-anchor="middle" x="1351.63" y="-43.7" font-family="Times New Roman,serif" font-size="14.00">data: &#45;0.8026</text>
<polyline fill="none" stroke="black" points="1395.63,-31 1395.63,-66.5"/>
<text xml:space="preserve" text-anchor="middle" x="1438.13" y="-43.7" font-family="Times New Roman,serif" font-size="14.00">grad: 0.0000</text>
</g>
<!-- 1419065900016&#45;&gt;1419065951536* -->
<g id="edge31" class="edge">
<title>1419065900016&#45;&gt;1419065951536*</title>
<path fill="none" stroke="black" d="M1452.08,-66.95C1461.68,-69.74 1471.42,-72.64 1480.63,-75.5 1489.63,-78.3 1499.31,-81.49 1508.28,-84.52"/>
<polygon fill="black" stroke="black" points="1507.14,-87.83 1517.73,-87.75 1509.4,-81.21 1507.14,-87.83"/>
</g>
<!-- 1419065951248 -->
<g id="node19" class="node">
<title>1419065951248</title>
<polygon fill="none" stroke="black" points="1290.13,-226.5 1290.13,-262.5 1478.38,-262.5 1478.38,-226.5 1290.13,-226.5"/>
<text xml:space="preserve" text-anchor="middle" x="1300" y="-239.7" font-family="Times New Roman,serif" font-size="14.00"> </text>
<polyline fill="none" stroke="black" points="1309.88,-227 1309.88,-262.5"/>
<text xml:space="preserve" text-anchor="middle" x="1351.63" y="-239.7" font-family="Times New Roman,serif" font-size="14.00">data: 0.0000</text>
<polyline fill="none" stroke="black" points="1393.38,-227 1393.38,-262.5"/>
<text xml:space="preserve" text-anchor="middle" x="1435.88" y="-239.7" font-family="Times New Roman,serif" font-size="14.00">grad: 0.0000</text>
</g>
<!-- 1419065951920* -->
<g id="node34" class="node">
<title>1419065951920*</title>
<ellipse fill="none" stroke="black" cx="1543.63" cy="-202.5" rx="27" ry="18"/>
<text xml:space="preserve" text-anchor="middle" x="1543.63" y="-197.45" font-family="Times New Roman,serif" font-size="14.00">*</text>
</g>
<!-- 1419065951248&#45;&gt;1419065951920* -->
<g id="edge15" class="edge">
<title>1419065951248&#45;&gt;1419065951920*</title>
<path fill="none" stroke="black" d="M1454.28,-226.08C1472.62,-221.18 1491.67,-216.1 1507.37,-211.91"/>
<polygon fill="black" stroke="black" points="1507.93,-215.38 1516.68,-209.42 1506.12,-208.62 1507.93,-215.38"/>
</g>
<!-- 1419065951248ReLU&#45;&gt;1419065951248 -->
<g id="edge7" class="edge">
<title>1419065951248ReLU&#45;&gt;1419065951248</title>
<path fill="none" stroke="black" d="M1252.19,-244.5C1260.18,-244.5 1269.16,-244.5 1278.57,-244.5"/>
<polygon fill="black" stroke="black" points="1278.27,-248 1288.27,-244.5 1278.27,-241 1278.27,-248"/>
</g>
<!-- 1419065900064 -->
<g id="node21" class="node">
<title>1419065900064</title>
<polygon fill="none" stroke="black" points="1287.88,-171.5 1287.88,-207.5 1480.63,-207.5 1480.63,-171.5 1287.88,-171.5"/>
<text xml:space="preserve" text-anchor="middle" x="1297.75" y="-184.7" font-family="Times New Roman,serif" font-size="14.00"> </text>
<polyline fill="none" stroke="black" points="1307.63,-172 1307.63,-207.5"/>
<text xml:space="preserve" text-anchor="middle" x="1351.63" y="-184.7" font-family="Times New Roman,serif" font-size="14.00">data: &#45;0.0231</text>
<polyline fill="none" stroke="black" points="1395.63,-172 1395.63,-207.5"/>
<text xml:space="preserve" text-anchor="middle" x="1438.13" y="-184.7" font-family="Times New Roman,serif" font-size="14.00">grad: 0.0000</text>
</g>
<!-- 1419065900064&#45;&gt;1419065951920* -->
<g id="edge30" class="edge">
<title>1419065900064&#45;&gt;1419065951920*</title>
<path fill="none" stroke="black" d="M1480.88,-197.4C1489.41,-198.1 1497.66,-198.79 1505.21,-199.41"/>
<polygon fill="black" stroke="black" points="1504.67,-202.88 1514.92,-200.21 1505.24,-195.9 1504.67,-202.88"/>
</g>
<!-- 1419065900112 -->
<g id="node22" class="node">
<title>1419065900112</title>
<polygon fill="none" stroke="black" points="1606.63,-133.5 1606.63,-169.5 1799.38,-169.5 1799.38,-133.5 1606.63,-133.5"/>
<text xml:space="preserve" text-anchor="middle" x="1616.5" y="-146.7" font-family="Times New Roman,serif" font-size="14.00"> </text>
<polyline fill="none" stroke="black" points="1626.38,-134 1626.38,-169.5"/>
<text xml:space="preserve" text-anchor="middle" x="1670.38" y="-146.7" font-family="Times New Roman,serif" font-size="14.00">data: &#45;0.3012</text>
<polyline fill="none" stroke="black" points="1714.38,-134 1714.38,-169.5"/>
<text xml:space="preserve" text-anchor="middle" x="1756.88" y="-146.7" font-family="Times New Roman,serif" font-size="14.00">grad: 0.0000</text>
</g>
<!-- 1419065951728+ -->
<g id="node28" class="node">
<title>1419065951728+</title>
<ellipse fill="none" stroke="black" cx="1931.75" cy="-147.5" rx="27" ry="18"/>
<text xml:space="preserve" text-anchor="middle" x="1931.75" y="-142.45" font-family="Times New Roman,serif" font-size="14.00">+</text>
</g>
<!-- 1419065900112&#45;&gt;1419065951728+ -->
<g id="edge19" class="edge">
<title>1419065900112&#45;&gt;1419065951728+</title>
<path fill="none" stroke="black" d="M1799.84,-149.81C1832.81,-149.23 1867.81,-148.61 1893.32,-148.16"/>
<polygon fill="black" stroke="black" points="1893.23,-151.66 1903.16,-147.99 1893.1,-144.66 1893.23,-151.66"/>
</g>
<!-- 1419065951536 -->
<g id="node23" class="node">
<title>1419065951536</title>
<polygon fill="none" stroke="black" points="1606.63,-78.5 1606.63,-114.5 1799.38,-114.5 1799.38,-78.5 1606.63,-78.5"/>
<text xml:space="preserve" text-anchor="middle" x="1616.5" y="-91.7" font-family="Times New Roman,serif" font-size="14.00"> </text>
<polyline fill="none" stroke="black" points="1626.38,-79 1626.38,-114.5"/>
<text xml:space="preserve" text-anchor="middle" x="1670.38" y="-91.7" font-family="Times New Roman,serif" font-size="14.00">data: &#45;0.0000</text>
<polyline fill="none" stroke="black" points="1714.38,-79 1714.38,-114.5"/>
<text xml:space="preserve" text-anchor="middle" x="1756.88" y="-91.7" font-family="Times New Roman,serif" font-size="14.00">grad: 0.0000</text>
</g>
<!-- 1419065951536&#45;&gt;1419065951728+ -->
<g id="edge36" class="edge">
<title>1419065951536&#45;&gt;1419065951728+</title>
<path fill="none" stroke="black" d="M1786.18,-114.98C1823.44,-123.36 1865.58,-132.84 1894.7,-139.39"/>
<polygon fill="black" stroke="black" points="1893.57,-142.72 1904.1,-141.5 1895.11,-135.9 1893.57,-142.72"/>
</g>
<!-- 1419065951536*&#45;&gt;1419065951536 -->
<g id="edge8" class="edge">
<title>1419065951536*&#45;&gt;1419065951536</title>
<path fill="none" stroke="black" d="M1570.97,-96.5C1578.1,-96.5 1586.29,-96.5 1595.02,-96.5"/>
<polygon fill="black" stroke="black" points="1594.8,-100 1604.8,-96.5 1594.8,-93 1594.8,-100"/>
</g>
<!-- 1419065900496 -->
<g id="node25" class="node">
<title>1419065900496</title>
<polygon fill="none" stroke="black" points="318.75,-55.5 318.75,-91.5 511.5,-91.5 511.5,-55.5 318.75,-55.5"/>
<text xml:space="preserve" text-anchor="middle" x="328.62" y="-68.7" font-family="Times New Roman,serif" font-size="14.00"> </text>
<polyline fill="none" stroke="black" points="338.5,-56 338.5,-91.5"/>
<text xml:space="preserve" text-anchor="middle" x="382.5" y="-68.7" font-family="Times New Roman,serif" font-size="14.00">data: &#45;0.7050</text>
<polyline fill="none" stroke="black" points="426.5,-56 426.5,-91.5"/>
<text xml:space="preserve" text-anchor="middle" x="469" y="-68.7" font-family="Times New Roman,serif" font-size="14.00">grad: 0.0000</text>
</g>
<!-- 1419065900688+ -->
<g id="node32" class="node">
<title>1419065900688+</title>
<ellipse fill="none" stroke="black" cx="574.5" cy="-73.5" rx="27" ry="18"/>
<text xml:space="preserve" text-anchor="middle" x="574.5" y="-68.45" font-family="Times New Roman,serif" font-size="14.00">+</text>
</g>
<!-- 1419065900496&#45;&gt;1419065900688+ -->
<g id="edge38" class="edge">
<title>1419065900496&#45;&gt;1419065900688+</title>
<path fill="none" stroke="black" d="M511.75,-73.5C520.18,-73.5 528.34,-73.5 535.82,-73.5"/>
<polygon fill="black" stroke="black" points="535.79,-77 545.79,-73.5 535.79,-70 535.79,-77"/>
</g>
<!-- 1419065900496*&#45;&gt;1419065900496 -->
<g id="edge9" class="edge">
<title>1419065900496*&#45;&gt;1419065900496</title>
<path fill="none" stroke="black" d="M282.74,-85.19C289.92,-84.55 298.19,-83.81 307,-83.03"/>
<polygon fill="black" stroke="black" points="307.26,-86.52 316.92,-82.15 306.64,-79.55 307.26,-86.52"/>
</g>
<!-- 1419065951728 -->
<g id="node27" class="node">
<title>1419065951728</title>
<polygon fill="none" stroke="black" points="2064.13,-133.5 2064.13,-169.5 2256.88,-169.5 2256.88,-133.5 2064.13,-133.5"/>
<text xml:space="preserve" text-anchor="middle" x="2074" y="-146.7" font-family="Times New Roman,serif" font-size="14.00"> </text>
<polyline fill="none" stroke="black" points="2083.88,-134 2083.88,-169.5"/>
<text xml:space="preserve" text-anchor="middle" x="2127.88" y="-146.7" font-family="Times New Roman,serif" font-size="14.00">data: &#45;0.3012</text>
<polyline fill="none" stroke="black" points="2171.88,-134 2171.88,-169.5"/>
<text xml:space="preserve" text-anchor="middle" x="2214.38" y="-146.7" font-family="Times New Roman,serif" font-size="14.00">grad: 0.0000</text>
</g>
<!-- 1419065952112+ -->
<g id="node39" class="node">
<title>1419065952112+</title>
<ellipse fill="none" stroke="black" cx="2319.88" cy="-174.5" rx="27" ry="18"/>
<text xml:space="preserve" text-anchor="middle" x="2319.88" y="-169.45" font-family="Times New Roman,serif" font-size="14.00">+</text>
</g>
<!-- 1419065951728&#45;&gt;1419065952112+ -->
<g id="edge28" class="edge">
<title>1419065951728&#45;&gt;1419065952112+</title>
<path fill="none" stroke="black" d="M2257.13,-165.48C2265.75,-166.74 2274.08,-167.95 2281.69,-169.06"/>
<polygon fill="black" stroke="black" points="2281.08,-172.51 2291.48,-170.5 2282.09,-165.59 2281.08,-172.51"/>
</g>
<!-- 1419065951728+&#45;&gt;1419065951728 -->
<g id="edge10" class="edge">
<title>1419065951728+&#45;&gt;1419065951728</title>
<path fill="none" stroke="black" d="M1959.21,-147.97C1982.45,-148.38 2017.88,-149 2052.51,-149.61"/>
<polygon fill="black" stroke="black" points="2052.13,-153.11 2062.19,-149.78 2052.26,-146.11 2052.13,-153.11"/>
</g>
<!-- 1419035643440 -->
<g id="node29" class="node">
<title>1419035643440</title>
<polygon fill="none" stroke="black" points="321,-110.5 321,-146.5 509.25,-146.5 509.25,-110.5 321,-110.5"/>
<text xml:space="preserve" text-anchor="middle" x="330.88" y="-123.7" font-family="Times New Roman,serif" font-size="14.00"> </text>
<polyline fill="none" stroke="black" points="340.75,-111 340.75,-146.5"/>
<text xml:space="preserve" text-anchor="middle" x="382.5" y="-123.7" font-family="Times New Roman,serif" font-size="14.00">data: 0.6496</text>
<polyline fill="none" stroke="black" points="424.25,-111 424.25,-146.5"/>
<text xml:space="preserve" text-anchor="middle" x="466.75" y="-123.7" font-family="Times New Roman,serif" font-size="14.00">grad: 0.0000</text>
</g>
<!-- 1419035643440&#45;&gt;1419065900880* -->
<g id="edge22" class="edge">
<title>1419035643440&#45;&gt;1419065900880*</title>
<path fill="none" stroke="black" d="M509.49,-128.5C518.74,-128.5 527.71,-128.5 535.86,-128.5"/>
<polygon fill="black" stroke="black" points="535.65,-132 545.65,-128.5 535.65,-125 535.65,-132"/>
</g>
<!-- 1419035643488 -->
<g id="node30" class="node">
<title>1419035643488</title>
<polygon fill="none" stroke="black" points="318.75,-0.5 318.75,-36.5 511.5,-36.5 511.5,-0.5 318.75,-0.5"/>
<text xml:space="preserve" text-anchor="middle" x="328.62" y="-13.7" font-family="Times New Roman,serif" font-size="14.00"> </text>
<polyline fill="none" stroke="black" points="338.5,-1 338.5,-36.5"/>
<text xml:space="preserve" text-anchor="middle" x="382.5" y="-13.7" font-family="Times New Roman,serif" font-size="14.00">data: &#45;0.2508</text>
<polyline fill="none" stroke="black" points="426.5,-1 426.5,-36.5"/>
<text xml:space="preserve" text-anchor="middle" x="469" y="-13.7" font-family="Times New Roman,serif" font-size="14.00">grad: 0.0000</text>
</g>
<!-- 1419035643488&#45;&gt;1419065900688+ -->
<g id="edge32" class="edge">
<title>1419035643488&#45;&gt;1419065900688+</title>
<path fill="none" stroke="black" d="M485.79,-36.92C494.51,-39.61 503.26,-42.49 511.5,-45.5 521.5,-49.15 532.13,-53.7 541.73,-58.06"/>
<polygon fill="black" stroke="black" points="540.1,-61.17 550.65,-62.21 543.06,-54.82 540.1,-61.17"/>
</g>
<!-- 1419065900688 -->
<g id="node31" class="node">
<title>1419065900688</title>
<polygon fill="none" stroke="black" points="637.5,-55.5 637.5,-91.5 830.25,-91.5 830.25,-55.5 637.5,-55.5"/>
<text xml:space="preserve" text-anchor="middle" x="647.38" y="-68.7" font-family="Times New Roman,serif" font-size="14.00"> </text>
<polyline fill="none" stroke="black" points="657.25,-56 657.25,-91.5"/>
<text xml:space="preserve" text-anchor="middle" x="701.25" y="-68.7" font-family="Times New Roman,serif" font-size="14.00">data: &#45;0.9558</text>
<polyline fill="none" stroke="black" points="745.25,-56 745.25,-91.5"/>
<text xml:space="preserve" text-anchor="middle" x="787.75" y="-68.7" font-family="Times New Roman,serif" font-size="14.00">grad: 0.0000</text>
</g>
<!-- 1419065900688&#45;&gt;1419065950288+ -->
<g id="edge20" class="edge">
<title>1419065900688&#45;&gt;1419065950288+</title>
<path fill="none" stroke="black" d="M830.5,-91.73C839.39,-93.42 847.98,-95.06 855.78,-96.55"/>
<polygon fill="black" stroke="black" points="854.99,-99.96 865.47,-98.39 856.3,-93.08 854.99,-99.96"/>
</g>
<!-- 1419065900688+&#45;&gt;1419065900688 -->
<g id="edge11" class="edge">
<title>1419065900688+&#45;&gt;1419065900688</title>
<path fill="none" stroke="black" d="M601.84,-73.5C608.98,-73.5 617.17,-73.5 625.89,-73.5"/>
<polygon fill="black" stroke="black" points="625.67,-77 635.67,-73.5 625.67,-70 625.67,-77"/>
</g>
<!-- 1419065951920 -->
<g id="node33" class="node">
<title>1419065951920</title>
<polygon fill="none" stroke="black" points="1835.38,-184.5 1835.38,-220.5 2028.13,-220.5 2028.13,-184.5 1835.38,-184.5"/>
<text xml:space="preserve" text-anchor="middle" x="1845.25" y="-197.7" font-family="Times New Roman,serif" font-size="14.00"> </text>
<polyline fill="none" stroke="black" points="1855.13,-185 1855.13,-220.5"/>
<text xml:space="preserve" text-anchor="middle" x="1899.13" y="-197.7" font-family="Times New Roman,serif" font-size="14.00">data: &#45;0.0000</text>
<polyline fill="none" stroke="black" points="1943.13,-185 1943.13,-220.5"/>
<text xml:space="preserve" text-anchor="middle" x="1985.63" y="-197.7" font-family="Times New Roman,serif" font-size="14.00">grad: 0.0000</text>
</g>
<!-- 1419065951920&#45;&gt;1419065952112+ -->
<g id="edge18" class="edge">
<title>1419065951920&#45;&gt;1419065952112+</title>
<path fill="none" stroke="black" d="M2028.5,-195.95C2093.04,-191.47 2180.09,-185.32 2256.88,-179.5 2264.76,-178.9 2273.21,-178.24 2281.25,-177.59"/>
<polygon fill="black" stroke="black" points="2281.44,-181.09 2291.13,-176.79 2280.88,-174.11 2281.44,-181.09"/>
</g>
<!-- 1419065951920*&#45;&gt;1419065951920 -->
<g id="edge12" class="edge">
<title>1419065951920*&#45;&gt;1419065951920</title>
<path fill="none" stroke="black" d="M1570.86,-202.5C1621.95,-202.5 1737.35,-202.5 1823.78,-202.5"/>
<polygon fill="black" stroke="black" points="1823.73,-206 1833.73,-202.5 1823.73,-199 1823.73,-206"/>
</g>
<!-- 1419039604464 -->
<g id="node35" class="node">
<title>1419039604464</title>
<polygon fill="none" stroke="black" points="0,-69.5 0,-105.5 192.75,-105.5 192.75,-69.5 0,-69.5"/>
<text xml:space="preserve" text-anchor="middle" x="9.88" y="-82.7" font-family="Times New Roman,serif" font-size="14.00"> </text>
<polyline fill="none" stroke="black" points="19.75,-70 19.75,-105.5"/>
<text xml:space="preserve" text-anchor="middle" x="63.75" y="-82.7" font-family="Times New Roman,serif" font-size="14.00">data: &#45;0.7050</text>
<polyline fill="none" stroke="black" points="107.75,-70 107.75,-105.5"/>
<text xml:space="preserve" text-anchor="middle" x="150.25" y="-82.7" font-family="Times New Roman,serif" font-size="14.00">grad: 0.0000</text>
</g>
<!-- 1419039604464&#45;&gt;1419065900496* -->
<g id="edge26" class="edge">
<title>1419039604464&#45;&gt;1419065900496*</title>
<path fill="none" stroke="black" d="M193,-87.5C201.43,-87.5 209.59,-87.5 217.07,-87.5"/>
<polygon fill="black" stroke="black" points="217.04,-91 227.04,-87.5 217.04,-84 217.04,-91"/>
</g>
<!-- 1419065900880 -->
<g id="node36" class="node">
<title>1419065900880</title>
<polygon fill="none" stroke="black" points="637.5,-110.5 637.5,-146.5 830.25,-146.5 830.25,-110.5 637.5,-110.5"/>
<text xml:space="preserve" text-anchor="middle" x="647.38" y="-123.7" font-family="Times New Roman,serif" font-size="14.00"> </text>
<polyline fill="none" stroke="black" points="657.25,-111 657.25,-146.5"/>
<text xml:space="preserve" text-anchor="middle" x="701.25" y="-123.7" font-family="Times New Roman,serif" font-size="14.00">data: &#45;0.3248</text>
<polyline fill="none" stroke="black" points="745.25,-111 745.25,-146.5"/>
<text xml:space="preserve" text-anchor="middle" x="787.75" y="-123.7" font-family="Times New Roman,serif" font-size="14.00">grad: 0.0000</text>
</g>
<!-- 1419065900880&#45;&gt;1419065950288+ -->
<g id="edge39" class="edge">
<title>1419065900880&#45;&gt;1419065950288+</title>
<path fill="none" stroke="black" d="M830.5,-113.31C839.31,-111.91 847.82,-110.56 855.56,-109.33"/>
<polygon fill="black" stroke="black" points="855.83,-112.83 865.16,-107.8 854.73,-105.92 855.83,-112.83"/>
</g>
<!-- 1419065900880*&#45;&gt;1419065900880 -->
<g id="edge13" class="edge">
<title>1419065900880*&#45;&gt;1419065900880</title>
<path fill="none" stroke="black" d="M601.84,-128.5C608.98,-128.5 617.17,-128.5 625.89,-128.5"/>
<polygon fill="black" stroke="black" points="625.67,-132 635.67,-128.5 625.67,-125 625.67,-132"/>
</g>
<!-- 1419065952112 -->
<g id="node38" class="node">
<title>1419065952112</title>
<polygon fill="none" stroke="black" points="2382.88,-156.5 2382.88,-192.5 2575.63,-192.5 2575.63,-156.5 2382.88,-156.5"/>
<text xml:space="preserve" text-anchor="middle" x="2392.75" y="-169.7" font-family="Times New Roman,serif" font-size="14.00"> </text>
<polyline fill="none" stroke="black" points="2402.63,-157 2402.63,-192.5"/>
<text xml:space="preserve" text-anchor="middle" x="2446.63" y="-169.7" font-family="Times New Roman,serif" font-size="14.00">data: &#45;0.3012</text>
<polyline fill="none" stroke="black" points="2490.63,-157 2490.63,-192.5"/>
<text xml:space="preserve" text-anchor="middle" x="2533.13" y="-169.7" font-family="Times New Roman,serif" font-size="14.00">grad: 0.0000</text>
</g>
<!-- 1419065952112+&#45;&gt;1419065952112 -->
<g id="edge14" class="edge">
<title>1419065952112+&#45;&gt;1419065952112</title>
<path fill="none" stroke="black" d="M2347.22,-174.5C2354.35,-174.5 2362.54,-174.5 2371.27,-174.5"/>
<polygon fill="black" stroke="black" points="2371.05,-178 2381.05,-174.5 2371.05,-171 2371.05,-178"/>
</g>
</g>
</svg>
